<?xml version="1.0"?>
<svg width="769" height="1280" xmlns="http://www.w3.org/2000/svg" xmlns:svg="http://www.w3.org/2000/svg" preserveAspectRatio="xMidYMid meet">
 <metadata>Created by potrace 1.15, written by Peter Selinger 2001-2017</metadata>
 <g class="layer">
  <title>Layer 1</title>
  <g fill="#000000" id="svg_1" transform="translate(0 1280) scale(0.1 -0.1)">
   <path d="m3092,12787c-181,-57 -306,-516 -272,-996c21,-307 114,-799 199,-1066c46,-143 76,-420 61,-558c-11,-98 -38,-146 -135,-243c-61,-61 -89,-80 -190,-128c-250,-120 -525,-343 -616,-501c-47,-81 -102,-211 -134,-320c-56,-186 -68,-217 -115,-287c-26,-40 -87,-116 -134,-168c-48,-52 -99,-112 -114,-132c-15,-21 -31,-38 -35,-38c-5,0 -40,64 -78,143c-80,163 -81,149 -2,-34l54,-127l-28,-41c-15,-22 -31,-40 -36,-41c-4,0 -92,42 -195,94c-231,116 -536,245 -548,233c-2,-1 50,-25 114,-52c144,-60 537,-256 576,-288l28,-23l-26,-53c-18,-34 -32,-51 -41,-47c-78,30 -650,168 -687,165c-7,0 81,-24 197,-53c186,-47 442,-126 475,-146c20,-12 -18,-102 -39,-95c-43,13 -234,37 -388,47c-184,13 -425,1 -447,-22c-8,-9 13,-10 89,-4c236,21 559,1 704,-42l51,-15l0,-83c0,-71 -3,-85 -18,-91c-9,-3 -80,-18 -156,-31c-274,-48 -451,-104 -634,-200c-101,-53 -307,-177 -327,-197c-13,-12 -19,-16 145,75c185,103 301,161 388,192c135,48 478,126 557,126c32,0 34,-2 41,-45c11,-77 33,-63 -311,-207c-282,-118 -494,-226 -625,-317c-170,-119 -205,-153 -55,-54c149,97 434,241 740,371c116,49 220,92 231,96c19,6 23,0 37,-51c9,-32 19,-68 22,-79c6,-19 -8,-32 -97,-95c-201,-142 -474,-355 -588,-459c-45,-41 -26,-29 80,52c149,115 622,449 628,444c2,-3 -11,-18 -29,-33c-635,-527 -1009,-1104 -1132,-1749c-26,-133 -44,-284 -33,-273c3,3 15,57 27,120c90,505 290,957 573,1296c107,129 310,337 476,490l135,124l13,-30c12,-31 12,-32 -125,-188c-264,-304 -437,-533 -580,-771c-97,-161 -350,-659 -340,-669c3,-3 37,57 75,133c128,254 287,548 339,625c124,183 486,630 606,748l55,54l22,-43c12,-23 20,-50 17,-60c-2,-10 -49,-87 -103,-171c-149,-234 -341,-650 -405,-878c-43,-153 -35,-145 25,24c82,232 109,294 230,530c103,202 211,388 261,451l20,26l28,-42l27,-42l-39,-96c-21,-54 -79,-194 -128,-312c-153,-365 -200,-497 -227,-630c-31,-154 -63,-400 -70,-540c-5,-93 -2,-82 23,105c64,460 97,600 200,846c58,139 58,114 0,-117c-51,-207 -99,-445 -113,-564l-6,-45l15,50c8,28 40,167 70,310c81,378 97,433 192,684c119,314 111,302 174,256c19,-14 42,-28 52,-31c9,-4 17,-11 17,-16c0,-6 7,-7 16,-4c12,5 14,1 8,-16c-6,-20 -5,-21 10,-9c14,12 16,11 16,-3c0,-19 11,-21 29,-3c12,10 13,9 7,-7c-5,-15 -2,-17 14,-13c21,5 28,-7 10,-18c-5,-3 -10,-11 -10,-16c0,-5 11,-2 25,7c14,9 25,12 25,6c0,-6 -4,-14 -10,-17c-5,-3 -10,-11 -10,-16c0,-5 12,-2 26,8c27,17 27,17 15,-4c-17,-33 -13,-38 11,-17c23,20 23,23 1,-33c-6,-16 -3,-15 17,2l23,20l-5,-22c-7,-26 1,-29 21,-10c11,10 12,8 6,-11c-6,-21 -5,-23 13,-13c27,15 39,14 24,-1c-22,-22 -12,-29 15,-11l28,18l-17,-26c-16,-26 -16,-27 2,-22c30,8 24,-5 -12,-27c-32,-19 -32,-20 -8,-20l25,-1l-22,-18c-30,-25 -29,-29 5,-24l27,4l-35,-30c-32,-28 -33,-30 -10,-25l25,6l-29,-27l-29,-26l39,6l39,7l-37,-26c-45,-32 -47,-38 -10,-30l27,5l-28,-25c-31,-29 -30,-30 10,-16c26,9 25,7 -12,-26c-40,-37 -37,-39 24,-16c7,3 -6,-14 -30,-37l-44,-42l35,17l35,16l-40,-42c-26,-27 -32,-38 -18,-31c34,17 36,13 13,-19c-14,-19 -17,-30 -9,-30c7,0 0,-13 -16,-30c-30,-31 -28,-38 6,-20c24,14 24,5 -2,-31c-22,-31 -19,-35 12,-19c24,13 24,9 -3,-36l-21,-36l21,6c29,10 28,3 -9,-51c-27,-39 -28,-43 -10,-33c21,11 21,10 -4,-40c-25,-50 -26,-51 -4,-39l22,11l-21,-30c-27,-37 -27,-43 -5,-35c17,7 17,6 0,-20c-19,-30 -22,-41 -7,-32c18,11 10,-11 -10,-30c-26,-23 -26,-39 -1,-25c30,16 35,12 17,-15c-20,-30 -20,-36 -1,-29c19,8 19,0 -1,-38c-12,-24 -13,-32 -4,-38c10,-6 8,-15 -7,-36c-37,-53 -38,-57 -14,-44l22,11l-21,-40c-20,-41 -16,-53 9,-29c8,8 7,1 -3,-19c-17,-33 -10,-43 12,-21c7,7 4,-13 -8,-46c-15,-45 -16,-55 -5,-46c21,17 19,9 -12,-45l-26,-47l28,18l28,18l-17,-32c-20,-39 -20,-43 1,-35c15,6 14,1 -5,-31c-23,-39 -28,-61 -12,-51c25,15 7,-14 -21,-34c-23,-17 -28,-26 -19,-31c9,-6 -1,-18 -34,-41c-35,-25 -43,-35 -31,-39c13,-5 12,-8 -9,-20c-14,-7 -26,-17 -26,-22c0,-5 5,-6 10,-3c6,3 10,2 10,-2c0,-5 -15,-17 -32,-28c-28,-16 -30,-20 -14,-23c18,-4 18,-5 -5,-23c-15,-11 -19,-19 -10,-19c10,0 8,-7 -8,-24l-22,-23l28,4l28,4l-25,-20c-69,-55 -68,-53 -40,-47c24,5 24,4 -8,-24c-30,-28 -31,-30 -10,-30l23,0l-25,-20l-25,-20l25,0c24,0 24,-1 -7,-21c-38,-24 -42,-33 -12,-24c21,7 21,6 5,-16c-20,-29 -20,-40 -1,-33c22,9 18,-6 -7,-34l-23,-24l30,8l30,7l-24,-27c-14,-14 -19,-26 -12,-26c8,0 9,-5 1,-19c-14,-27 -13,-31 8,-24c13,5 11,0 -7,-20l-24,-27l23,0c22,0 23,-1 5,-20c-17,-19 -17,-20 0,-20c16,0 17,-2 3,-17c-26,-31 -31,-43 -12,-36c14,5 15,3 5,-15c-16,-30 -14,-34 11,-26c22,7 22,6 4,-21c-16,-24 -16,-27 -2,-22c21,8 20,1 -6,-36c-18,-25 -19,-29 -5,-24c23,9 21,-2 -5,-31l-23,-25l23,6c26,6 28,0 5,-25c-15,-17 -15,-18 1,-18c15,0 15,-2 -1,-27c-17,-26 -17,-26 5,-21c26,7 27,5 5,-29c-17,-26 -17,-26 5,-14c22,11 33,-1 12,-14c-19,-11 -10,-26 11,-20c18,6 20,5 10,-14c-8,-15 -8,-21 -1,-21c7,0 8,-6 0,-19c-15,-29 -12,-33 12,-20c22,12 22,12 5,-15c-15,-22 -15,-26 -2,-26c18,0 19,-5 4,-32c-9,-18 -8,-19 10,-13c24,7 26,3 10,-28c-9,-18 -9,-20 2,-9c23,21 32,13 15,-13c-17,-26 -9,-34 12,-13c15,15 15,3 1,-24c-10,-19 -9,-20 17,-14c27,7 28,7 11,-12c-22,-24 -22,-33 0,-25c13,5 15,2 10,-16c-5,-19 -2,-21 16,-15l22,7l-20,-23l-20,-23l28,5c31,6 33,2 10,-24c-15,-17 -15,-18 5,-18c25,0 28,-10 10,-29c-11,-11 -9,-12 10,-6c21,6 23,5 13,-13c-17,-32 -14,-47 6,-31c15,13 16,11 10,-19c-6,-30 -5,-33 14,-27c19,6 20,5 8,-16c-9,-17 -9,-24 0,-27c7,-2 8,-14 4,-30c-6,-24 -5,-26 10,-13c15,12 16,10 10,-19c-4,-24 -3,-31 6,-26c9,6 10,0 5,-20c-5,-20 -4,-25 6,-19c9,6 11,-1 6,-26c-3,-19 -3,-28 0,-21c10,22 21,12 16,-15c-5,-25 -4,-27 11,-14c15,12 16,10 10,-20c-6,-32 -5,-33 12,-19c17,14 17,13 10,-10c-4,-14 -10,-32 -13,-40c-5,-13 -4,-13 13,0c17,14 17,13 10,-10c-4,-14 -10,-32 -13,-40c-4,-10 2,-9 18,5l23,20l-8,-25c-4,-14 -10,-31 -13,-39c-4,-10 1,-11 17,-6c20,6 22,5 12,-13c-14,-27 -14,-45 1,-36c8,5 9,2 5,-9c-22,-54 -22,-53 -4,-38c20,16 22,8 6,-21c-10,-18 -9,-20 6,-14c18,7 18,-2 -1,-49c-7,-18 -6,-19 11,-5c20,16 20,17 -1,-35c-5,-11 -2,-13 10,-9c14,5 15,2 6,-21c-13,-33 -13,-38 0,-30c13,8 13,-1 -1,-27c-10,-18 -9,-20 5,-15c19,7 19,6 6,-29c-9,-24 -9,-25 5,-14c18,15 19,3 5,-34c-7,-21 -6,-24 6,-19c12,4 14,0 8,-22c-5,-20 -4,-26 5,-21c16,10 14,0 -6,-31c-17,-25 -17,-26 7,-18c19,6 22,4 17,-9c-4,-9 -10,-22 -13,-30c-4,-11 0,-13 16,-9c20,5 21,4 11,-15c-15,-28 -14,-35 4,-28c18,6 19,1 5,-25c-9,-15 -7,-19 5,-19c13,0 14,-4 5,-20c-8,-14 -8,-20 0,-20c7,0 7,-6 -1,-21c-10,-19 -9,-20 11,-14c21,7 21,6 5,-25c-16,-31 -16,-31 4,-20c25,13 27,3 4,-29c-16,-23 -16,-24 5,-19c19,5 20,3 11,-13c-8,-15 -6,-19 8,-19c16,-1 15,-3 -4,-19c-27,-22 -29,-31 -8,-31c18,0 19,-12 3,-28c-9,-9 -9,-12 0,-12c9,0 8,-8 -4,-25c-11,-17 -13,-25 -4,-25c7,0 9,-7 6,-15c-3,-8 -9,-22 -12,-30c-4,-10 0,-15 10,-15c15,0 15,-2 0,-25c-16,-24 -16,-25 7,-25l22,0l-23,-25l-23,-25l21,0c25,0 28,-10 10,-28c-9,-9 -7,-12 12,-12c22,0 23,-1 5,-20c-17,-19 -17,-20 -1,-20c16,0 15,-3 -3,-29l-20,-28l25,5l26,5l-16,-32c-15,-27 -15,-31 -1,-31c19,0 19,-4 -1,-42c-15,-29 -15,-30 1,-24c14,5 16,2 11,-18c-3,-13 -9,-31 -12,-40c-5,-12 -2,-15 9,-10c13,5 15,0 10,-33c-6,-33 -4,-36 9,-25c13,10 16,2 22,-65c3,-43 13,-103 21,-133c21,-80 18,-164 -12,-337c-31,-178 -29,-192 37,-237c30,-21 53,-49 70,-83c14,-28 34,-61 45,-73c66,-74 339,-149 600,-166c117,-7 263,8 343,36c66,24 110,26 118,6c3,-8 -2,-48 -11,-89c-23,-103 -10,-131 82,-191c92,-59 177,-101 248,-122c71,-20 248,-15 330,11c32,10 68,13 100,9c43,-5 58,-1 105,24c30,16 95,39 144,51c105,26 169,57 213,103c61,64 67,123 27,274c-16,60 -30,142 -34,209c-5,79 -20,164 -55,303c-26,106 -44,196 -41,200c4,3 20,-2 36,-12c33,-19 36,-14 15,24c-19,33 -18,41 2,33c12,-5 7,7 -16,35l-33,43l38,-22l39,-23l-30,34c-24,26 -26,30 -8,21c35,-18 38,-13 12,16c-18,20 -20,25 -6,20c21,-8 23,11 2,19c-8,4 -15,10 -15,15c0,6 10,5 23,-1c21,-10 21,-10 2,4c-11,8 -29,22 -40,31c-20,16 -19,16 5,10c22,-6 20,-2 -15,29c-38,34 -39,35 -15,36l25,0l-30,26c-29,24 -29,25 -5,18c14,-4 32,-9 40,-12c8,-3 -3,14 -25,37c-42,44 -41,50 6,25c39,-20 45,-14 19,18c-10,14 -17,28 -14,31c3,3 -2,16 -11,30c-10,16 -12,26 -5,29c7,2 6,16 -5,42c-9,21 -14,40 -12,42c2,2 16,-10 32,-26c35,-36 41,-37 49,-5c3,13 11,37 18,52l12,28l5,-39l6,-39l28,39l29,39l-7,-35c-4,-19 -9,-44 -11,-55c-6,-22 3,-14 79,75c20,24 37,40 37,36c0,-4 -9,-44 -20,-88c-25,-94 -22,-115 8,-67c20,33 62,78 62,67c0,-2 -11,-33 -25,-68c-30,-76 -31,-83 -5,-50c24,30 25,17 5,-40c-20,-55 -19,-56 10,-23l24,28l-25,-85c-15,-47 -35,-107 -45,-133c-26,-65 -24,-68 17,-22c33,37 35,38 30,13c-3,-14 -9,-34 -13,-45c-5,-14 -1,-13 22,7l27,25l-26,-53l-27,-53l28,18l28,18l-23,-32c-23,-32 -18,-45 6,-21c15,15 15,9 -2,-79c-7,-40 -10,-73 -5,-73c5,0 9,4 9,8c0,5 7,17 16,28c14,18 15,18 8,-6c-4,-14 -9,-32 -12,-40c-4,-12 -1,-11 15,3c24,20 33,14 33,-25c0,-15 5,-28 10,-28c6,0 10,-133 10,-378l0,-379l23,-21c12,-12 52,-34 87,-51c36,-16 74,-39 85,-51c74,-84 343,-117 573,-72c285,57 492,176 492,283c0,30 -10,50 -55,104c-56,69 -62,85 -45,129c12,33 -9,115 -54,203c-50,102 -53,113 -22,113c14,0 85,-26 158,-59c287,-127 418,-154 753,-155c189,0 243,3 300,17c178,45 259,113 295,245c15,58 -3,86 -76,118c-30,13 -57,31 -61,40c-3,8 4,35 16,58c28,56 27,70 -9,138c-27,51 -30,65 -28,141c2,77 -1,91 -30,149c-59,120 -206,269 -324,329c-62,31 -166,62 -268,79c-133,22 -160,31 -160,52c0,14 5,18 19,13c26,-8 51,4 51,26c0,22 4,23 31,8c19,-10 20,-9 9,12c-11,19 -10,21 4,16c14,-6 14,-2 -4,23c-11,16 -25,32 -30,35c-6,4 -10,11 -10,16c0,6 14,1 31,-11c38,-28 47,-21 14,10c-30,28 -33,45 -6,30c31,-16 34,-12 12,19c-27,38 -27,49 1,25c15,-14 20,-15 16,-4c-23,58 -23,56 7,30l29,-25l-28,48c-26,46 -26,48 -6,37c21,-11 21,-11 6,19c-10,19 -12,31 -5,33c7,2 7,12 0,31l-11,27l27,-17l26,-17l-13,24l-13,24l27,-17c30,-20 32,-16 9,21c-10,17 -11,22 -3,15c22,-20 35,-15 17,5c-19,21 -23,42 -5,24c24,-24 29,-11 7,20c-19,26 -20,30 -6,25c20,-8 22,3 5,23c-8,8 -3,7 14,-3c26,-16 27,-16 21,0c-5,13 -2,15 11,10c12,-5 9,4 -11,30c-27,35 -18,37 20,5c9,-8 17,-10 17,-5c0,6 -7,16 -15,23c-20,17 -19,31 2,23c17,-7 17,-6 0,20c-22,33 -22,43 0,26c15,-13 15,-12 0,18c-24,46 -21,51 13,18c35,-34 38,-25 9,30c-12,22 -15,34 -8,27c22,-21 30,-13 13,13c-19,29 -13,31 23,8c29,-19 27,-8 -6,31c-15,18 -15,19 2,13c20,-7 22,3 5,22c-11,11 -9,11 9,2c32,-17 35,-14 16,17l-18,27l28,-18c33,-21 34,-15 5,30l-21,35l22,-12c31,-16 39,-4 19,31c-19,32 -17,34 13,19c23,-13 25,-1 4,26c-21,28 -18,40 5,19c23,-21 24,-17 10,21l-11,27l26,-17l26,-17l-21,41l-21,41l36,-15l35,-15l-17,26c-17,26 -17,26 5,21c22,-6 31,6 12,17c-5,3 -10,11 -10,17c0,7 7,5 17,-4c36,-31 49,-34 31,-8c-10,14 -23,34 -29,45c-12,20 -12,20 10,1c11,-11 21,-14 21,-9c0,6 -7,16 -15,23c-19,16 -19,34 0,26c13,-5 13,-1 -1,26l-16,31l39,-24l38,-23l-27,36c-34,44 -34,48 -5,40l22,-5l-20,23l-20,23l20,-5c11,-3 29,-9 40,-13c15,-6 12,1 -12,26c-36,38 -41,52 -18,43c20,-8 19,6 -1,35c-16,22 -16,23 5,16c17,-5 20,-3 14,12c-7,17 -6,17 20,0c36,-23 34,-11 -5,42c-27,37 -28,42 -10,32c26,-14 28,-5 5,21c-18,20 -4,25 28,8c26,-14 24,-2 -6,43c-21,30 -23,37 -10,37c13,0 14,4 5,20c-13,25 -7,25 28,3l27,-18l-25,39c-19,32 -21,38 -7,33c16,-6 16,-4 2,23c-17,32 -14,36 16,20c23,-13 26,2 4,20c-23,19 -18,33 11,26c23,-6 24,-5 14,14c-6,11 -22,27 -36,36c-31,21 -26,28 12,14c27,-9 27,-9 9,5c-11,8 -29,21 -40,30c-19,16 -19,16 5,9c25,-6 25,-6 -5,26l-30,33l28,-7c35,-8 34,-2 -5,34c-26,23 -29,29 -15,30c15,0 16,3 6,21c-10,19 -9,20 13,14c18,-5 15,1 -17,29c-38,34 -39,35 -15,36c24,1 24,2 -14,35c-27,24 -34,35 -23,35c27,0 20,13 -20,39c-25,16 -32,25 -23,31c9,5 -4,19 -41,44c-46,31 -50,36 -29,36l25,0l-30,25c-25,20 -27,24 -11,25c18,0 18,1 1,20c-18,20 -17,20 10,20c24,0 26,2 14,17c-13,15 -11,15 21,-1l35,-17l-40,35c-40,35 -41,46 -4,26c32,-18 21,-2 -18,26l-38,26l35,-6c32,-5 33,-4 15,9c-11,8 -29,21 -40,30c-19,16 -19,16 -1,10c20,-6 20,-6 0,16l-19,22l30,-7l30,-7l-25,21c-27,21 -17,26 27,10c28,-10 28,-10 7,7c-12,10 -30,24 -40,31c-17,11 -17,12 6,6c24,-7 23,-6 -5,21c-28,25 -25,27 23,8c9,-4 -5,14 -33,40c-43,40 -47,46 -27,47c27,0 29,16 2,32c-30,19 -24,28 12,17c47,-13 45,-4 -6,26c-45,26 -61,43 -31,31c18,-7 20,10 3,18c-7,3 3,3 22,0l35,-5l-40,26c-30,19 -35,25 -20,25l20,1l-20,11c-19,12 -18,13 10,18l30,6l-45,21c-37,17 -41,21 -21,22l24,1l-23,25c-22,23 -22,25 -4,25c18,1 17,2 -3,19c-30,25 -29,31 5,31l27,1l-30,16l-30,17l30,6l30,5l-45,19l-45,19l30,5l30,4l-40,18l-40,19l30,1l30,2l-30,13l-30,14l35,1c37,1 36,2 -17,37c-15,10 -13,11 17,7l35,-6l-33,23c-23,15 -30,24 -21,30c7,4 19,5 27,1c27,-10 3,17 -30,34c-28,14 -29,16 -12,29c16,11 15,13 -16,20c-30,7 -32,8 -14,18c17,10 17,12 -11,18c-31,6 -30,7 23,25c13,5 8,10 -23,24c-38,16 -39,18 -15,22c23,5 23,5 3,7c-36,2 -27,21 10,22c32,1 32,1 -18,25c-46,23 -47,24 -16,19c40,-6 35,2 -17,26l-37,17l35,1l35,2l-40,18c-32,15 -35,20 -17,20c12,1 22,5 22,9c0,5 -10,14 -22,20l-23,11l23,0c32,1 19,18 -20,26l-32,7l30,13c16,8 25,14 19,14c-5,1 -21,11 -35,22l-25,20l33,-4c17,-2 32,-2 32,-1c0,2 -15,11 -32,21l-33,17l30,6l30,6l-29,15c-21,12 -25,18 -16,24c9,6 4,12 -16,21c-26,11 -27,12 -6,13c30,1 28,15 -5,31l-28,12l25,10l25,10l-35,13l-35,13l30,4l30,4l-45,21c-41,20 -42,22 -17,22c38,1 34,14 -10,31l-38,14l30,6l30,7l-24,10l-25,10l25,7c23,7 22,8 -16,21c-22,7 -33,13 -25,14c11,1 8,7 -10,21l-25,20l30,0l30,1l-25,14c-20,11 -21,14 -7,15c28,0 11,18 -26,26c-28,6 -30,8 -12,15c19,8 19,8 -2,15c-37,11 -27,27 12,21c44,-7 38,4 -15,28c-40,18 -41,19 -18,28c22,8 21,9 -17,26c-31,13 -36,19 -22,24c24,9 21,23 -5,32c-22,7 -21,8 7,14l30,7l-35,8c-48,11 -57,18 -34,27c18,7 17,8 -3,8c-30,1 -38,19 -11,23c21,4 19,6 -12,20l-35,16l25,10c24,9 24,10 -15,17c-37,8 -38,9 -17,18c32,14 27,27 -10,28l-33,1l30,11l30,12l-40,5l-40,6l30,14l30,14l-43,4c-23,2 -40,7 -37,13c4,5 -5,9 -19,9c-29,0 -35,16 -8,23c11,3 7,7 -16,12c-26,6 -30,10 -21,21c9,11 5,15 -20,20c-36,7 -42,24 -8,25c17,0 14,3 -13,13l-34,13l34,8l35,8l-55,12c-30,7 -45,13 -33,14c34,2 38,21 4,21c-36,0 -50,17 -19,23c20,3 19,5 -10,12c-30,7 -31,9 -15,21c16,12 14,13 -17,14c-26,0 -31,3 -20,10c12,7 7,11 -19,16c-34,7 -34,7 -10,17c22,10 21,11 -21,16c-41,5 -43,7 -25,18c18,11 17,12 -15,13c-33,1 -34,1 -16,15c19,14 18,15 -14,15c-32,0 -33,1 -14,15c18,14 18,14 -5,15c-19,0 -21,3 -12,14c9,11 5,15 -21,20l-33,7l25,19l25,20l-30,0l-30,1l25,14c24,14 22,14 -34,15c-54,0 -58,1 -41,14c18,13 16,15 -25,27c-27,7 -38,14 -27,16c33,8 17,23 -24,23c-36,0 -40,2 -29,15c11,13 7,15 -24,15c-35,0 -49,13 -23,23c6,3 -7,6 -30,6c-47,1 -52,7 -25,28c15,13 13,14 -20,11c-21,-2 -38,-2 -38,0c0,2 10,13 23,23l22,20l-22,-5c-13,-4 -33,-9 -44,-12c-14,-4 -19,-2 -15,5c5,7 -2,11 -16,11c-23,1 -23,1 -3,17c19,15 18,15 -18,10c-35,-5 -37,-4 -25,10c11,14 10,16 -14,11c-34,-6 -35,-2 -5,24l22,19l-39,-6c-34,-6 -38,-4 -28,8c10,12 8,13 -14,9c-19,-3 -25,-1 -20,7c4,7 0,11 -11,11c-14,0 -12,5 12,25c33,27 24,33 -15,10c-37,-21 -49,-17 -20,7l25,21l-27,-6c-14,-4 -34,-10 -45,-14c-16,-6 -17,-5 -3,12c14,17 13,17 -10,10l-25,-8l20,23l20,22l-35,-7l-35,-7l25,26l25,27l-29,-11c-36,-13 -44,-6 -21,20c22,24 19,25 -31,4l-39,-16l19,21l19,21l-34,-6l-34,-6l25,22l25,21l-40,-6l-39,-7l24,21l25,21l-40,-6l-40,-7l30,32l30,33l-30,-8c-27,-7 -29,-6 -16,9c12,15 10,17 -15,18l-29,1l29,12l28,13l-33,7l-34,7l25,14l25,14l-32,1c-38,0 -43,14 -10,25c18,7 14,9 -23,14l-45,7l34,8c25,6 30,11 20,17c-8,5 -24,9 -37,9c-13,0 -20,4 -17,10c3,6 17,10 31,10c14,0 22,4 19,10c-3,6 -20,10 -38,10c-35,0 -26,16 13,22l25,5l-25,11c-24,10 -23,11 15,12c50,1 28,19 -25,21l-35,1l28,12l28,12l-28,13l-28,13l35,18l35,18l-27,7c-16,4 -28,10 -28,14c0,4 12,14 28,21l27,14l-40,6c-39,6 -39,7 -15,18l25,11l-30,1c-29,1 -29,2 -7,12c24,12 29,28 10,29c-7,0 -4,4 7,8c18,8 16,10 -15,19c-19,6 -28,11 -20,12c8,0 29,7 45,14l30,13l-45,13l-45,12l33,16c42,21 41,32 -5,32l-38,0l25,20l25,20l-24,0c-23,0 -23,1 -7,25c15,23 15,25 -1,25c-13,0 -10,6 12,20l30,20l-25,1l-25,0l23,11c24,12 30,28 10,28c-8,0 -4,8 7,16c16,13 17,17 6,22c-9,3 -5,9 15,18c29,12 29,12 4,14l-25,1l25,14c15,9 19,15 10,15c-10,0 -7,7 10,20c20,16 21,19 5,13c-18,-6 -18,-5 -6,10c7,9 10,17 5,17c-5,0 0,7 10,15c20,15 20,15 0,15c-16,0 -17,2 -4,10c12,8 12,10 1,10c-10,0 -11,4 -3,13c7,8 6,18 -4,31c-21,30 -17,95 11,155c61,130 193,270 393,418c170,126 225,175 291,264c106,140 184,301 270,553c155,455 188,669 195,1264c5,434 1,475 -53,542c-43,54 -140,98 -244,112c-149,20 -358,-17 -502,-89c-139,-70 -371,-250 -520,-405c-132,-136 -229,-263 -336,-439c-101,-168 -139,-248 -260,-548c-72,-179 -106,-252 -129,-276c-27,-28 -37,-54 -65,-168c-18,-75 -38,-144 -43,-153c-12,-22 -14,-11 -42,181c-63,439 -161,810 -320,1220c-129,332 -160,457 -160,648c0,105 -15,141 -87,208c-112,105 -254,151 -361,116z" fill="#222" id="svg_2" stroke="#ea9341"/>
  </g>
 </g>
</svg>